<?xml version="1.0" encoding="utf-8"?>
<!-- Generator: Adobe Illustrator 22.0.1, SVG Export Plug-In . SVG Version: 6.00 Build 0)  -->
<svg version="1.1" id="Layer_1" xmlns="http://www.w3.org/2000/svg" xmlns:xlink="http://www.w3.org/1999/xlink" x="0px" y="0px"
	 viewBox="0 0 141.7 141.7" style="enable-background:new 0 0 141.7 141.7;" xml:space="preserve">
<style type="text/css">
	.st0{fill:#FC6E5E;}
</style>
<g>
	<path class="st0" d="M63.1,71.8c-5-22.4-22.9-37.4-40-33.6c-8.6,1.9-15.3,8.3-19.3,17c9.2-3.6,29-9.7,35.5,2.2
		c4.1,7.5-2.5,13-4.5,14.3c2.6-0.3,22.7-2,29.1,14.7c0.1,0.3,0.2,0.7,0.4,1C64.6,82.4,64.3,77.1,63.1,71.8 M18,78.2
		c0,0,11.3-4.9,8.2-13.2c-3.1-8.4-18.1-4.3-25.1-1.8C-0.4,70-0.5,77.8,1.3,85.7c2.6,11.6,8.6,21.1,16.2,27.2
		c14.1-1.4,29.5-7.1,28.3-21.7C44.4,75.1,18,78.2,18,78.2z"/>
	<path class="st0" d="M64.3,87.4c7.3-15.8,17.1-34.5,26.5-44.3c7.6-7.9,27.1-9.7,44.6-9.6c-1.2-1.9-2.7-3.7-4.3-5.4
		c-17.2-17.8-49.2-12.7-71.3,11.3c-2.9,3.1-5.5,6.5-7.7,9.9c5.1,5.8,9.1,13.5,11.1,22.3c1.1,4.8,1.5,9.6,1.3,14.2
		C64.4,86,64.1,87.8,64.3,87.4 M140.3,45.1c-13.8,2.2-29.9,5.7-34.2,10.6c-1.8,2-5,6-8.1,12.1c17.5-4.6,34.2-3.7,43.3-2.7
		C142.1,58.1,141.9,51.3,140.3,45.1 M90.5,124.2c11.1-3.1,22.2-9.9,31.7-20.1c8.1-8.8,13.8-19,16.9-29.2
		c-12.5,0.7-36.7,2.1-45.6,3.5C89.7,89.6,87.4,104.8,90.5,124.2z"/>
</g>
</svg>
