<?xml version="1.0" encoding="utf-8"?>
<!-- Generator: Adobe Illustrator 22.0.1, SVG Export Plug-In . SVG Version: 6.00 Build 0)  -->
<svg version="1.1" id="Layer_1" xmlns="http://www.w3.org/2000/svg" xmlns:xlink="http://www.w3.org/1999/xlink" x="0px" y="0px"
	 viewBox="0 0 141.7 141.7" style="enable-background:new 0 0 141.7 141.7;" xml:space="preserve">
<style type="text/css">
	.st0{fill:#FFA69F;}
</style>
<g>
	<g>
		<path class="st0" d="M140.6,70.9c0,38.1-31.1,70.9-69.7,70.9c-15.1,0-29.1-5-40.6-13.4l-9.9,10.1L6.6,125l9.7-10.3
			C6.8,102.5,1.2,87.2,1.2,70.9C1.2,32.8,32.2,0,70.9,0c15.5,0,29.9,5.4,41.5,14.2l10.7-11.1l14.2,14.4l-10.7,11.1
			C135.3,40.6,140.6,55.3,140.6,70.9z M35.7,94.6L93.6,34c-6.6-4.5-14.4-7.2-22.7-7.2c-23.3,0-42.1,21.2-42.1,44.1
			C28.7,79.4,31.3,87.6,35.7,94.6z M113,70.9c0-7.8-2.1-15.3-6-22.1l-57.7,59.8c6.4,4.1,13.6,6.4,21.6,6.4
			C94.2,114.9,113,94,113,70.9z"/>
	</g>
</g>
</svg>
