<?xml version="1.0" encoding="utf-8"?>
<!-- Generator: Adobe Illustrator 22.0.1, SVG Export Plug-In . SVG Version: 6.00 Build 0)  -->
<svg version="1.1" id="Layer_1" xmlns="http://www.w3.org/2000/svg" xmlns:xlink="http://www.w3.org/1999/xlink" x="0px" y="0px"
	 viewBox="0 0 141.7 141.7" style="enable-background:new 0 0 141.7 141.7;" xml:space="preserve">
<style type="text/css">
	.st0{fill:#FC6E5E;}
</style>
<g>
	<polyline class="st0" points="116.2,90.1 115.6,62.7 113.8,61.1 113.6,51.5 115.5,49.5 115.5,46.2 93.9,46.2 93.9,49.5 95.8,51.5 
		95.6,61.1 93.9,62.7 93.2,90.1 116.2,90.1 	"/>
	<path class="st0" d="M113.5,43.1v-3.3c0-5.4-4-9.2-8.8-9.2c-4.8,0-8.8,3.8-8.8,9.2v3.3H113.5"/>
	<polyline class="st0" points="25.5,90.1 26.2,62.7 27.9,61.1 28.1,51.5 26.2,49.5 26.2,46.2 47.8,46.2 47.8,49.5 45.9,51.5 
		46.2,61.1 47.9,62.7 48.5,90.1 25.5,90.1 	"/>
	<path class="st0" d="M28.2,43.1v-3.3c0-5.4,4-9.2,8.8-9.2c4.8,0,8.8,3.8,8.8,9.2v3.3H28.2"/>
	<polyline class="st0" points="37,14.5 35.5,19.2 30.7,18.1 34.1,21.8 30.7,25.5 35.5,24.4 37,29.2 38.5,24.4 43.4,25.5 40,21.8 
		43.4,18.1 38.5,19.2 37,14.5 	"/>
	<polyline class="st0" points="104.7,14.5 106.2,19.2 111.1,18.1 107.7,21.8 111.1,25.5 106.2,24.4 104.7,29.2 103.2,24.4 
		98.4,25.5 101.8,21.8 98.4,18.1 103.2,19.2 104.7,14.5 	"/>
	<path class="st0" d="M84.6,90.1l-0.9-34.2l1.8-2v-4.3H56.3V54l1.8,2l-0.9,34.2h8.5V77.3c0-3.3,2.4-5.6,5.3-5.6
		c2.9,0,5.4,2.3,5.4,5.6v12.8H84.6"/>
	<polyline class="st0" points="82.6,46.8 82.3,39.1 84.1,37.4 84.1,31.7 78.7,31.7 78.7,36.6 73.5,36.6 73.5,31.8 68.3,31.8 
		68.3,36.6 63,36.6 63,31.7 57.6,31.7 57.6,37.4 59.4,39.1 59.2,46.8 82.6,46.8 	"/>
	<polyline class="st0" points="81.6,29.5 70.9,11.3 60.2,29.5 81.6,29.5 	"/>
	<path class="st0" d="M66.6,5.2c-0.1-2.7,2-5.1,4.7-5.2c2.1-0.1,3.2,1,3.5,1.2c0.1,0.1,0.2,0.3,0.1,0.4c-0.1,0.1-0.3,0.1-0.4,0.1
		c-0.3-0.2-0.7-0.5-1.8-0.4c-2,0.1-3.5,1.8-3.4,3.8c0.1,2,1.8,3.5,3.8,3.4c1-0.1,1.5-0.4,1.8-0.6c0.1-0.1,0.3-0.1,0.4,0
		c0.1,0.1,0.1,0.3,0,0.4c-0.2,0.2-1.3,1.5-3.4,1.6C69.1,10,66.7,7.9,66.6,5.2"/>
	<path class="st0" d="M70.9,141.7c9.2,0,16.2-6.7,18.1-13.4c1,7.1,7.8,9.4,13.6,6.3c3.2-1.8,6.3-4.8,8.4-9.3
		c0.1-0.2,0.1-0.5-0.1-0.6c-0.2-0.1-0.4,0-0.5,0.2c-1.6,2.2-3.4,4.1-5.6,4.8c-7.6,2.4-14.4-2.7-15.4-9.8c0-0.3-0.2-0.4-0.4-0.4
		c-0.2,0-0.3,0.1-0.4,0.4c-1.8,7.1-8.8,13.3-17.8,13.3c-8.9,0-15.9-6.1-17.7-13.3c-0.1-0.3-0.2-0.4-0.4-0.4c-0.2,0-0.3,0.2-0.4,0.4
		c-1,7.1-7.8,12.2-15.4,9.8c-2.2-0.6-4-2.5-5.6-4.8c-0.1-0.2-0.4-0.3-0.5-0.2c-0.2,0.1-0.2,0.4-0.1,0.6c2.1,4.4,5.2,7.5,8.4,9.3
		c5.8,3.1,12.7,0.8,13.6-6.3C54.7,135.1,61.6,141.7,70.9,141.7"/>
	<path class="st0" d="M70.9,108.8c-9.5,0-15.8-6.1-18.3-12.8c-3.8,13.7-21.2,16.3-27.2,6.9c-2.3-3.6-3.3-8.6-3.7-13.3
		c0-0.2,0.1-0.5,0.3-0.5c0.2,0,0.4,0.1,0.4,0.4c1.5,6,4.5,7.9,8.3,9.3c9.1,3.3,19.7-1.3,21.6-11.4c0-0.3,0.1-0.5,0.4-0.5
		c0.2,0,0.3,0.2,0.4,0.4c1.6,7,9.1,12.7,17.9,12.7c8.8,0,16.4-5.7,17.9-12.7c0-0.3,0.1-0.4,0.4-0.4c0.3,0,0.3,0.2,0.4,0.5
		c1.9,10.2,12.5,14.7,21.6,11.4c3.8-1.4,6.7-3.3,8.3-9.3c0.1-0.2,0.2-0.4,0.4-0.4c0.2,0,0.3,0.3,0.3,0.5c-0.4,4.7-1.4,9.8-3.7,13.3
		c-6,9.4-23.4,6.8-27.2-6.9C86.7,102.6,80.4,108.8,70.9,108.8"/>
	<path class="st0" d="M70.9,125.2c9.2,0,16.7-6.6,18.2-14c1.8,11.7,16.9,16.6,24.2,8c2.7-3.2,4.2-7.8,5-12.6c0-0.2,0-0.5-0.2-0.5
		c-0.2,0-0.4,0.1-0.5,0.3c-1.6,5.1-4.1,7.6-7.8,8.8c-9.8,3.4-18.7-3.4-20.2-11.8c-0.1-0.3-0.2-0.5-0.4-0.5c-0.2,0-0.4,0.1-0.4,0.4
		c-0.9,4.7-7.2,13-17.9,13c-10.6,0-16.9-8.3-17.8-13c-0.1-0.3-0.2-0.4-0.4-0.4c-0.2,0-0.3,0.2-0.4,0.5c-1.6,8.4-10.5,15.2-20.3,11.8
		c-3.7-1.3-6.1-3.7-7.7-8.8c-0.1-0.2-0.3-0.4-0.5-0.3c-0.2,0.1-0.3,0.3-0.3,0.5c0.8,4.8,2.3,9.4,5,12.6c7.3,8.6,22.4,3.7,24.2-8
		C54.2,118.7,61.6,125.2,70.9,125.2"/>
</g>
</svg>
