<svg id="Layer_1" data-name="Layer 1" xmlns="http://www.w3.org/2000/svg" viewBox="0 0 24 24"><defs><style>.cls-1{fill:none;stroke:#000;stroke-linecap:round;stroke-linejoin:round;stroke-width:2px;}</style></defs><title>circle_linkedin</title><circle class="cls-1" cx="12" cy="12" r="10"/><path d="M11,14.7c.18,0,.26.08.26.26v.79c0,.18-.08.27-.26.27H7.65c-.18,0-.26-.09-.26-.27V15c0-.18.08-.26.26-.26h.93V11.82H7.65c-.18,0-.26-.08-.26-.26v-.79c0-.19.08-.27.26-.27H9.76c.18,0,.26.08.26.27V14.7Zm-.88-5.18c0,.18-.08.26-.26.26h-1c-.18,0-.27-.08-.27-.26v-1a.24.24,0,0,1,.27-.27h1c.18,0,.26.09.26.27Z"/><path d="M15,10.37a1.83,1.83,0,0,1,1.34.5,2,2,0,0,1,.5,1.49v3.39c0,.18-.08.27-.26.27h-.91a.24.24,0,0,1-.27-.27V12.48c0-.52-.24-.78-.73-.78-.7,0-1.07.4-1.07,1.2v2.85c0,.18-.08.27-.26.27h-.91c-.18,0-.26-.09-.26-.27v-5c0-.19.08-.27.26-.27h.7a.26.26,0,0,1,.28.24l.05.26A2,2,0,0,1,15,10.38Z"/></svg>