<?xml version="1.0" encoding="utf-8"?>
<!-- Generator: Adobe Illustrator 22.0.1, SVG Export Plug-In . SVG Version: 6.00 Build 0)  -->
<svg version="1.1" id="Layer_1" xmlns="http://www.w3.org/2000/svg" xmlns:xlink="http://www.w3.org/1999/xlink" x="0px" y="0px"
	 viewBox="0 0 310 50" style="enable-background:new 0 0 310 50;" xml:space="preserve">
<g>
	<polygon points="27.6,30.2 20.2,0.9 0.5,0.9 0.5,49.1 12.7,49.1 12.7,12.3 22,49.1 33.1,49.1 42.5,12.3 42.5,49.1 54.7,49.1 
		54.7,0.9 35.1,0.9 	"/>
	<path d="M83.6,0.1c-7.8,0-13.9,2.2-18.3,6.6C60.9,11,58.7,17.2,58.7,25c0,5.6,1.1,10.3,3.3,14.1c2.2,3.7,5.1,6.5,8.7,8.2
		c3.6,1.7,8.1,2.6,13.5,2.6c5.3,0,9.8-1,13.4-3c3.6-2,6.3-4.8,8.2-8.4c1.9-3.6,2.8-8.2,2.8-13.8c0-7.8-2.2-13.8-6.5-18.1
		C97.8,2.2,91.6,0.1,83.6,0.1z M91.1,35.6c-1.8,2.1-4.2,3.1-7.4,3.1c-3.1,0-5.6-1.1-7.4-3.2c-1.8-2.1-2.7-5.6-2.7-10.4
		c0-4.9,0.9-8.4,2.7-10.5c1.8-2.1,4.2-3.2,7.2-3.2c3.1,0,5.6,1,7.4,3.1c1.8,2.1,2.7,5.4,2.7,9.9C93.7,29.8,92.8,33.5,91.1,35.6z"/>
	<polygon points="145.2,27.5 127.1,0.9 113.2,0.9 113.2,49.1 127.2,49.1 127.2,22.6 145.2,49.1 159.3,49.1 159.3,0.9 145.2,0.9 	"/>
	<path d="M198.7,20.9c-2.8-1.4-7.5-2.9-14-4.3c-2.6-0.5-4.3-1.1-5-1.8c-0.7-0.6-1.1-1.3-1.1-2.1c0-1,0.4-1.9,1.3-2.7
		c0.9-0.7,2.2-1.1,3.9-1.1c2.1,0,3.8,0.5,5,1.5c1.2,1,2,2.6,2.4,4.8l14.1-0.8c-0.6-5-2.5-8.7-5.8-11c-3.2-2.3-7.9-3.4-14.1-3.4
		c-5,0-9,0.6-11.9,1.9c-2.9,1.3-5.1,3-6.5,5.2c-1.4,2.2-2.2,4.5-2.2,7c0,3.8,1.4,6.9,4.2,9.3c2.8,2.4,7.5,4.4,14,5.8
		c4,0.9,6.5,1.8,7.7,2.8c1.1,1,1.7,2.1,1.7,3.3c0,1.3-0.6,2.5-1.7,3.5c-1.2,1-2.8,1.5-4.9,1.5c-2.9,0-5-1-6.6-2.9
		c-0.9-1.2-1.6-3-1.9-5.2L163,33.1c0.4,4.9,2.2,8.9,5.4,12.1c3.2,3.2,8.8,4.7,17,4.7c4.7,0,8.5-0.7,11.6-2c3.1-1.3,5.5-3.3,7.2-5.9
		c1.7-2.6,2.6-5.5,2.6-8.6c0-2.6-0.6-5-1.9-7.1C203.6,24.1,201.5,22.4,198.7,20.9z"/>
	<path d="M242,30.2c0,2.7-0.7,4.7-2.2,6.2c-1.5,1.5-3.5,2.2-6,2.2c-2.6,0-4.6-0.7-6.1-2.2c-1.5-1.5-2.2-3.5-2.2-6.1V0.9h-14.9v28.7
		c0,2.4,0.5,5.1,1.4,8.1c0.6,1.9,1.6,3.8,3.2,5.6c1.5,1.8,3.3,3.2,5.1,4.2c1.9,1,4.2,1.6,7,2c2.8,0.3,5.3,0.5,7.7,0.5
		c4.1,0,7.5-0.5,10.4-1.6c2.1-0.8,4.1-2.1,6-4c1.9-1.9,3.3-4.1,4.2-6.6c0.9-2.5,1.3-5.2,1.3-8.1V0.9H242V30.2z"/>
	<polygon points="309.5,49 309.3,0.8 295.2,0.8 295.3,27.5 277.1,0.9 263.2,1 263.4,49.2 277.4,49.2 277.3,22.6 295.4,49.1 	"/>
</g>
</svg>
