<?xml version="1.0" encoding="utf-8"?>
<!-- Generator: Adobe Illustrator 22.0.1, SVG Export Plug-In . SVG Version: 6.00 Build 0)  -->
<svg version="1.1" id="Layer_1" xmlns="http://www.w3.org/2000/svg" xmlns:xlink="http://www.w3.org/1999/xlink" x="0px" y="0px"
	 viewBox="0 0 141.7 141.7" style="enable-background:new 0 0 141.7 141.7;" xml:space="preserve">
<style type="text/css">
	.st0{fill:#FC6E5E;}
</style>
<path class="st0" d="M98.4,3.8c0,0-40.8,1.8-81.4,39.8c-40.6,38,0.1,72,30.7,85.3c24.5,10.7,55.3,24.2,81.4-39.8
	C170-1.7,98.4,3.8,98.4,3.8z M51.7,99.2l-2,0l-16.5,0c-1.5,0-2.8-0.9-2.8-2.3l0.1-0.6l1.3-7.2l0,0.1c0.2-1.5,1.6-2.4,3.1-2.4
	c0,0,18.6,0,18.7,0c2.8-0.1,5.4-2.7,5.4-5.4c0-1.5-0.7-2.8-4.4-4.7c-7.9-4.1-14.8-7.7-14.8-16c0-11.6,8.3-20,19.8-20.4l0.7,0
	c0.1,0,0.1,0,0.2,0h1.3c0.1,0,0.2,0,0.3,0h15.9c1.5,0,3.2,1,3.2,2.4l-0.1,0.7l-1.2,7l0-0.1c-0.2,1.5-2,2.4-3.5,2.4
	c0,0-10.2,0-15.8,0l0,0h-1.7c-2.8,0-5.5,2.6-5.5,5.3c0,1.8,1.5,2.6,5.9,4.7c0,0,1.5,0.7,1.5,0.7c8.2,3.9,11.9,8.7,11.9,15.4
	C72.4,90.6,63.7,99.2,51.7,99.2z M120.2,43.2l-1.2,7.3l0-0.1c-0.2,1.5-1.6,2.4-3.1,2.4c0,0-18.2,0-19.4,0c-0.2,0.9-1.4,8.2-1.8,10
	c2,0,15.1,0,15.1,0c1.5,0,2.8,0.9,2.8,2.4l0,0.4l-1.3,7.6l0-0.1c-0.2,1.5-1.7,2.4-3.2,2.4c0,0-14.6,0-15.7,0
	C92.4,76.7,89,96.8,89,96.8l0-0.1c-0.2,1.5-1.3,2.4-2.8,2.4h-8.1c-1.5,0-2.6-0.7-2.4-2.4l0.1-0.7l9.1-53.4l0.1-0.4
	c0.4-1.4,1.8-2.2,3.1-2.2h29.4c1.5,0,2.8,0.9,2.8,2.4L120.2,43.2z"/>
</svg>
