<svg id="Layer_1" data-name="Layer 1" xmlns="http://www.w3.org/2000/svg" viewBox="0 0 24 24"><defs><style>.cls-1{fill:none;stroke:#000;stroke-linecap:round;stroke-linejoin:round;stroke-width:2px;}</style></defs><title>circle_vimeo</title><circle class="cls-1" cx="12" cy="12" r="10"/><path d="M14.25,10.5a.23.23,0,0,1,.27.27v.64a1.28,1.28,0,0,1-.06.33l-1.54,4.07a.31.31,0,0,1-.31.21H11.39a.31.31,0,0,1-.31-.21L9.54,11.74a1.28,1.28,0,0,1-.06-.33v-.64c0-.19.09-.27.26-.27h.92c.18,0,.26.08.26.27v.69L12,14.58l1.08-3.12v-.69c0-.19.08-.27.26-.27Z"/></svg>