<svg id="Layer_1" data-name="Layer 1" xmlns="http://www.w3.org/2000/svg" viewBox="0 0 24 24"><defs><style>.cls-1{fill:none;stroke:#000;stroke-linecap:round;stroke-linejoin:round;stroke-width:2px;}</style></defs><title>circle_fb</title><circle class="cls-1" cx="12" cy="12" r="10"/><path d="M12.93,9.15c-.43,0-.64.27-.64.82v.53h1.47a.23.23,0,0,1,.27.27v.79c0,.18-.09.26-.27.26H12.29v3.93A.24.24,0,0,1,12,16h-.91c-.18,0-.26-.09-.26-.27V11.82H9.77c-.18,0-.26-.08-.26-.26v-.79c0-.19.08-.27.26-.27h1.08v-.35a2.3,2.3,0,0,1,.51-1.59A1.94,1.94,0,0,1,12.88,8a4.63,4.63,0,0,1,1.43.29c.17.05.22.16.16.34l-.19.55c-.06.15-.19.2-.4.14A3.28,3.28,0,0,0,13,9.15Z"/></svg>