<svg id="Layer_1" data-name="Layer 1" xmlns="http://www.w3.org/2000/svg" viewBox="0 0 425 90"><defs><style>.cls-1{fill:#46c4d3;}</style></defs><title>fagligteu</title><path d="M70,274.38,54.8,272.06V254.49H68.35v-9.37H54.8V229.25H69.25l3.83,8.92h6.78l-1.69-18.29H37.49v7.94l5.62.62v44l-5.8,1.16,1.25,7.84H69.34l.62-7Zm42.1,7.4a10.75,10.75,0,0,0,7.13-2.94l-1.6-5-1.34.18c-1.07,0-1.6-.65-1.6-2V252a15.19,15.19,0,0,0-1.34-6.78q-3.75-7.58-14-7.58a19.71,19.71,0,0,0-10.79,3.12,15.69,15.69,0,0,0-6.42,7.32l11.06,4.81,2.32-6.6a14.65,14.65,0,0,1,3.74-.27,6.16,6.16,0,0,1,3.26.85q1.38.85,1.38,1.83v7.05q-8.75.18-14.62,3.21a16,16,0,0,0-5.18,4.37,11.65,11.65,0,0,0-2,7.27,10.47,10.47,0,0,0,3.3,7.8q3.57,3.39,9.63,3.39a13.69,13.69,0,0,0,10-4.28,7.39,7.39,0,0,0,7.14,4.28ZM103.85,269a7.85,7.85,0,0,1-2.49,2.85,6.62,6.62,0,0,1-4.06,1.34A3.85,3.85,0,0,1,94,271.93a4.6,4.6,0,0,1-1-2.81q0-5.36,10.79-5.89V269Zm23.1,5.62a8.84,8.84,0,0,0,2.15,6.24q-6.87,4.1-6.87,11.51a11.64,11.64,0,0,0,4.64,9.45q4.81,3.84,12.57,3.83,9,0,14.72-4.45a15.25,15.25,0,0,0,6.15-12.58q0-9.72-14-12.67l-9.1-1.87-.18-1.25,1.61-2.41a6.44,6.44,0,0,0,1.07.09H141a18.93,18.93,0,0,0,12.22-3.92,16.07,16.07,0,0,0,4.06-5.09,15.49,15.49,0,0,0,1.56-7.18,16.34,16.34,0,0,0-1.88-7.71l8.3-1-1-8.83-2.05-.27-9.73,4.91a18.46,18.46,0,0,0-11.73-3.84,17.71,17.71,0,0,0-11.9,4.37,15.66,15.66,0,0,0-5.62,12.49q0,8.65,7,13.11a9.49,9.49,0,0,0-3.3,7Zm19.18-26.23a8.66,8.66,0,0,1,1.21,2.59,15,15,0,0,1,.4,3.84,8.87,8.87,0,0,1-1.61,4.86,6.6,6.6,0,0,1-10.26,0,8.86,8.86,0,0,1-1.6-4.86,13.58,13.58,0,0,1,.44-3.84q1.35-5,6.25-5a6.05,6.05,0,0,1,5.17,2.41ZM141,285.84c1.93.33,3.69.67,5.26,1a20.34,20.34,0,0,1,3.93,1.24,2.25,2.25,0,0,1,1.56,2.06q0,2.13-3.12,3.47a15.71,15.71,0,0,1-3.17,1,21.32,21.32,0,0,1-4.1.35,16.73,16.73,0,0,1-4.33-.53c-3.39-.84-5.08-2.41-5.08-4.73,0-2,1.16-3.78,3.48-5.26a38.1,38.1,0,0,0,5.57,1.38Zm38.85-70.15-13.29,1.87,1,6.07h4.63v50.93l-5,1.25,1,5.61h20.6v-5.61L183,274.38V219l-3.12-3.3ZM203,228.8a6.11,6.11,0,0,0,4.54-1.92,6.43,6.43,0,0,0,0-9.09,6.11,6.11,0,0,0-4.54-1.92,6.27,6.27,0,0,0-4.6,1.92,6.34,6.34,0,0,0,0,9.09,6.27,6.27,0,0,0,4.6,1.92Zm-9.28,17.13h4.55v28.63l-5,1.16,1,5.7H214v-5.7l-4.91-1v-34l-3-3.21-13.29,2.32,1,6.07Zm28.54,28.72a8.84,8.84,0,0,0,2.14,6.24q-6.87,4.1-6.87,11.51a11.66,11.66,0,0,0,4.64,9.45q4.81,3.84,12.58,3.83,9,0,14.71-4.45a15.23,15.23,0,0,0,6.16-12.58q0-9.72-14-12.67l-9.1-1.87-.18-1.25,1.6-2.41a6.56,6.56,0,0,0,1.08.09h1.24a18.91,18.91,0,0,0,12.22-3.92,15.8,15.8,0,0,0,4.06-5.09,15.49,15.49,0,0,0,1.56-7.18,16.33,16.33,0,0,0-1.87-7.71l8.29-1-1-8.83-2.05-.27-9.72,4.91a18.46,18.46,0,0,0-11.73-3.84A17.72,17.72,0,0,0,224.17,242a15.69,15.69,0,0,0-5.62,12.49q0,8.65,7,13.11a9.49,9.49,0,0,0-3.3,7Zm19.18-26.23a8.89,8.89,0,0,1,1.2,2.59,14.59,14.59,0,0,1,.4,3.84,8.86,8.86,0,0,1-1.6,4.86,6.6,6.6,0,0,1-10.26,0,8.87,8.87,0,0,1-1.61-4.86,13.17,13.17,0,0,1,.45-3.84q1.33-5,6.24-5a6.07,6.07,0,0,1,5.18,2.41Zm-5.13,37.42q2.9.5,5.26,1a20.57,20.57,0,0,1,3.93,1.24,2.26,2.26,0,0,1,1.56,2.06q0,2.13-3.13,3.47a15.61,15.61,0,0,1-3.16,1,21.32,21.32,0,0,1-4.1.35,16.73,16.73,0,0,1-4.33-.53c-3.39-.84-5.08-2.41-5.08-4.73,0-2,1.15-3.78,3.47-5.26a38.56,38.56,0,0,0,5.58,1.38Zm32.24-16.72q0,6.94,3.48,10.07a8.39,8.39,0,0,0,3.52,2,17.43,17.43,0,0,0,4.82.58,15.84,15.84,0,0,0,9.85-4c-.11-.6-.47-1.88-1.07-3.84-.23-.71-.47-1.39-.71-2.05s-.39-1.1-.45-1.34q-3.21,2.59-5.88,2.59a2.86,2.86,0,0,1-2-.67c-.48-.45-.72-1.59-.72-3.43V245.75h9.46v-7.58q0-.54-.45-.54h-9V222l-.8-1.43L269,222.65c-.06.89-.09,2.7-.09,5.44s0,5.91-.09,9.54h-7.58l-.63.89,1.34,7.23h6.78l-.18,21.05v2.32Zm90.53-49.24v7.94l5.62.62v44l-5.8,1.16,1.25,7.84H400l1.87-18.19h-7l-3.3,8.83H376.42V254.49H390v-9.37H376.42V229.25h14.45l3.66,8.83h7l-1.69-18.2Zm68,49.24q-2.64-3.3-2.63-10V228.71l6.33-1v-7.85h-24v7.94l6,.8V259.3q0,11.07,5.17,16.59,5.53,5.89,18.47,5.89,10.08,0,15.34-6t5.26-16.46V229.16l5.26-1.16v-8.12H442v7.85l5.71.8V259q0,13.38-11.24,13.38-6.69,0-9.32-3.3Z" transform="translate(-37.31 -215.69)"/><path class="cls-1" d="M327,281.42a18.85,18.85,0,1,1,18.85-18.84A18.84,18.84,0,0,1,327,281.42Z" transform="translate(-37.31 -215.69)"/></svg>