<svg id="Capa_1" data-name="Capa 1" xmlns="http://www.w3.org/2000/svg" viewBox="0 0 300 200"><defs><style>.cls-1{fill:#d80027;}.cls-2{fill:#0052b4;}.cls-3{fill:#f0f0f0;}</style></defs><title>united-kingdom</title><polygon class="cls-1" points="168.75 0 131.25 0 131.25 81.25 0 81.25 0 118.75 131.25 118.75 131.25 200 168.75 200 168.75 118.75 300 118.75 300 81.25 168.75 81.25 168.75 0"/><polygon class="cls-2" points="230.73 134.78 300 173.26 300 134.78 230.73 134.78"/><polygon class="cls-2" points="182.61 134.78 300 200 300 181.56 215.81 134.78 182.61 134.78"/><polygon class="cls-2" points="268.73 200 182.61 152.15 182.61 200 268.73 200"/><polygon class="cls-3" points="182.61 134.78 300 200 300 181.56 215.81 134.78 182.61 134.78"/><polygon class="cls-1" points="182.61 134.78 300 200 300 181.56 215.81 134.78 182.61 134.78"/><polygon class="cls-2" points="52.93 134.78 0 164.19 0 134.78 52.93 134.78"/><polygon class="cls-2" points="117.39 143.07 117.39 200 14.94 200 117.39 143.07"/><polygon class="cls-1" points="84.19 134.78 0 181.56 0 200 0 200 117.39 134.78 84.19 134.78"/><polygon class="cls-2" points="69.27 65.22 0 26.73 0 65.22 69.27 65.22"/><polygon class="cls-2" points="117.39 65.22 0 0 0 18.44 84.19 65.22 117.39 65.22"/><polygon class="cls-2" points="31.27 0 117.39 47.85 117.39 0 31.27 0"/><polygon class="cls-3" points="117.39 65.22 0 0 0 18.44 84.19 65.22 117.39 65.22"/><polygon class="cls-1" points="117.39 65.22 0 0 0 18.44 84.19 65.22 117.39 65.22"/><polygon class="cls-2" points="247.07 65.22 300 35.81 300 65.22 247.07 65.22"/><polygon class="cls-2" points="182.61 56.92 182.61 0 285.06 0 182.61 56.92"/><polygon class="cls-1" points="215.81 65.22 300 18.44 300 0 300 0 182.61 65.22 215.81 65.22"/></svg>